<svg xmlns="http://www.w3.org/2000/svg" width="109.389" height="109.389" viewBox="0 0 109.389 109.389"><defs><style>.a{fill:#757575;}</style></defs><g transform="translate(-0.133 -13.31)"><path class="a" d="M89.992,49.974A87.045,87.045,0,0,0,69.939,47.85a87,87,0,0,0-20.053,2.124c-6.281,1.55-9.465,3.6-9.465,6.1,0,3.348,5.475,4.721,9.592,5.459a119.333,119.333,0,0,0,19.925,1.429,119.317,119.317,0,0,0,19.925-1.429c4.117-.743,9.592-2.116,9.592-5.459C99.456,53.577,96.271,51.524,89.992,49.974Z" transform="translate(-27.777 -22.78)"/><path class="a" d="M379.357,183.346H379a2.171,2.171,0,0,0-2.124,2.171v27.63A2.171,2.171,0,0,0,379,215.319h.353a15.989,15.989,0,0,0,0-31.979Zm1.865,27.495v-23a11.649,11.649,0,0,1,0,23Z" transform="translate(-296.483 -131.103)"/><path class="a" d="M85.909,40.644V30.3c0-5.041-4.581-9.382-13.246-12.55-7.835-2.864-18.207-4.442-29.208-4.442s-21.373,1.578-29.208,4.437C5.581,20.92,1,25.261,1,30.3v75.4c0,5.041,4.581,9.382,13.246,12.555,7.835,2.864,18.207,4.442,29.208,4.442s21.373-1.577,29.208-4.442c8.665-3.169,13.246-7.509,13.246-12.55V95.816C99.7,94.8,110.389,82.753,110.389,68.23S99.7,41.659,85.909,40.644ZM84.067,91.377H83.79a2.092,2.092,0,0,0-1.533.65,2.312,2.312,0,0,0-.637,1.6v12.077c0,2.819-3.876,5.92-10.368,8.293-7.391,2.7-17.264,4.192-27.8,4.192S23.049,116.7,15.656,114c-6.49-2.378-10.366-5.478-10.366-8.3V30.3c0-2.819,3.876-5.92,10.366-8.293,7.393-2.7,17.266-4.192,27.8-4.192s20.406,1.49,27.8,4.192C77.744,24.382,81.62,27.483,81.62,30.3V42.834a2.312,2.312,0,0,0,.637,1.6,2.092,2.092,0,0,0,1.533.65h.277c12.167,0,22.029,10.363,22.029,23.147S96.233,91.381,84.067,91.381Z" transform="translate(-0.867 0)"/><path class="a" d="M108.275,273.65a2.171,2.171,0,0,0-2.171,2.171,1.641,1.641,0,0,1-3.281,0,2.171,2.171,0,1,0-4.343,0,5.984,5.984,0,1,0,11.967,0A2.171,2.171,0,0,0,108.275,273.65Z" transform="translate(-77.471 -206.203)"/><path class="a" d="M245.045,273.65a2.171,2.171,0,0,0-2.171,2.171,1.641,1.641,0,0,1-3.281,0,2.171,2.171,0,1,0-4.343,0,5.984,5.984,0,1,0,11.967,0A2.171,2.171,0,0,0,245.045,273.65Z" transform="translate(-184.95 -206.203)"/><path class="a" d="M167.528,312.065a2.171,2.171,0,0,0-2.076,1.531c-.148.4-1.253,2.912-5.211,2.912s-5.059-2.516-5.211-2.912a2.171,2.171,0,1,0-4.125,1.331h0c.076.241,1.982,5.921,9.337,5.921s9.265-5.68,9.337-5.921h0a2.131,2.131,0,0,0,.115-.69,2.171,2.171,0,0,0-2.165-2.171Z" transform="translate(-118.586 -231.126)"/></g></svg>