<svg xmlns="http://www.w3.org/2000/svg" width="96" height="116" viewBox="0 0 96 116"><defs><style>.a{fill:#757575;}</style></defs><g transform="translate(-16)"><path class="a" d="M112,0H46.52L16,26.979V116h96Zm-4,112.375H20V29H48V3.752l.15-.127H108Z"/><rect class="a" width="64" height="4" rx="2" transform="translate(32 36.129)"/><rect class="a" width="32" height="4" rx="2" transform="translate(32 46.968)"/><rect class="a" width="24" height="4" rx="2" transform="translate(72 46.968)"/><circle class="a" cx="8.35" cy="8.35" r="8.35" transform="translate(70.31 69.645)"/><path class="a" d="M94.82,74.62,95,72.87a3.35,3.35,0,0,0-3.15-3.64l-1.75-.1a3.35,3.35,0,0,1-2.78-1.79l-.82-1.55a3.35,3.35,0,0,0-4.62-1.36l-1.53.87a3.35,3.35,0,0,1-3.31,0l-1.53-.87a3.35,3.35,0,0,0-4.62,1.36L70,67.35a3.35,3.35,0,0,1-2.78,1.79l-1.75.1a3.35,3.35,0,0,0-3.15,3.64l.15,1.75a3.35,3.35,0,0,1-1.37,3l-1.42,1a3.35,3.35,0,0,0-.68,4.8l1.07,1.39a3.35,3.35,0,0,1,.47,3.27l-.64,1.64a3.35,3.35,0,0,0,2,4.38l1.66.59a3.35,3.35,0,0,1,2.16,2.5l.31,1.55-4.21,13.72,6.69-2.1,4.2,5.63,3.81-12.46a3.34,3.34,0,0,0,4.08.16l4,12.3,4.17-5.64,6.69,2.1L91.15,99.17a1.294,1.294,0,0,1,.08-.26l.35-1.72a3.35,3.35,0,0,1,2.16-2.5l1.66-.59a3.35,3.35,0,0,0,2-4.38l-.64-1.64a3.35,3.35,0,0,1,.47-3.27l1.07-1.39a3.35,3.35,0,0,0-.69-4.77l-1.42-1a3.35,3.35,0,0,1-1.37-3.03Zm-28.5,9.54a8.729,8.729,0,1,1-.01.01Z" transform="translate(0 -6)"/></g></svg>