<svg xmlns="http://www.w3.org/2000/svg" width="108" height="90" viewBox="0 0 108 90"><defs><style>.a{fill:#757575;}</style></defs><g transform="translate(-762.5 231.808)"><g transform="translate(760 -242)"><path class="a" d="M93.736,85.664a8.224,8.224,0,0,0,1.16-.083L85.335,97.255A8.047,8.047,0,0,1,74.06,98.4L12.222,48.329l10.127,4.747,53.41,43.251a5.341,5.341,0,0,0,7.485-.762l8.341-10.185A8.279,8.279,0,0,0,93.736,85.664ZM98.7,67.546,21.226,49.587l70.13,32.866A5.608,5.608,0,0,0,98.8,79.791l6.341-13.377a8.3,8.3,0,0,1-4.552,1.347A8.4,8.4,0,0,1,98.7,67.546Zm4.858-18.973H28.713l70.6,16.365a5.679,5.679,0,0,0,1.277.146,5.558,5.558,0,0,0,5.441-4.3l3.316-14.138A9.627,9.627,0,0,1,103.56,48.573Zm6.94-9.583v-21.9a6.92,6.92,0,0,0-6.94-6.9H9.442a6.922,6.922,0,0,0-6.942,6.9v21.9a6.922,6.922,0,0,0,6.942,6.9h94.117A6.92,6.92,0,0,0,110.5,38.99ZM35.792,41.525H9.179a2.324,2.324,0,0,1-2.331-2.317V16.877A2.324,2.324,0,0,1,9.179,14.56H35.794V41.525ZM12.325,33.473A2.927,2.927,0,1,1,9.381,36.4,2.936,2.936,0,0,1,12.325,33.473Z"/></g></g></svg>