<svg xmlns="http://www.w3.org/2000/svg" width="109.166" height="109.166" viewBox="0 0 109.166 109.166"><defs><style>.a{fill:#757575;}</style></defs><g transform="translate(93.197 -0.034)"><g transform="translate(-93.228 -1036.362)"><g transform="translate(0.031 1036.396)"><g transform="translate(0 0)"><g transform="translate(0 0)"><path class="a" d="M54.614.031A54.583,54.583,0,1,0,109.2,54.614,54.581,54.581,0,0,0,54.614.031Zm0,6.421A48.161,48.161,0,1,1,6.453,54.614,48.068,48.068,0,0,1,54.614,6.453ZM36.634,26.359l-4.281,5.993h12.2c1.263,0,10.128.457,13.271,6.422H36.634l-4.281,5.993H58.895c-.006.122-.2.319-.214.428,0,0-.027,13.2-23.974,10.917v5.779l25.9,28.255h9.846V88.862L45.624,61.035v-.428s19.46.268,22.689-15.626a.974.974,0,0,1,0-.214h8.134l4.5-5.993H68.1a12.862,12.862,0,0,0-3.425-6.422H76.661l4.281-5.993Z" transform="translate(-0.031 -0.031)"/></g></g></g></g></g></svg>